<svg xmlns="http://www.w3.org/2000/svg" width="33" height="33" viewBox="0 0 33 33"><script xmlns="" id="__gaOptOutExtension"/><g fill="none" fill-rule="evenodd" stroke="#000" stroke-linejoin="round" stroke-width=".866"><path stroke-linecap="round" d="M32.45 6.57a5.96 5.96 0 1 0-11.92 0 5.96 5.96 0 0 0 11.92 0z"/><path stroke-linecap="round" d="M23.903 9.222l2.595-6.158 2.581 6.158"/><path d="M24.62 7.55h3.75"/><path stroke-linecap="round" d="M.733 32.332h11.861V20.471H.733zM.73 16.5V6.7a2.1 2.1 0 0 1 2.09-2.1H16.6"/><path stroke-linecap="round" d="M12.619.616l3.985 3.985-3.985 3.985M32.45 16.45v9.81a2.1 2.1 0 0 1-2.09 2.09H16.58"/><path stroke-linecap="round" d="M20.562 32.332l-3.985-3.985 3.985-3.985M3.51 24.6h6.3m-3.15-1.44v1.44m1.62 0s.66 5.05-4.72 5.05m1.67-2.98c.4 1.4 1.52 2.98 4.53 2.98"/></g></svg>